<?xml version="1.0" encoding="UTF-8"?>
<svg width="50px" height="50px" viewBox="0 0 50 50" version="1.1" xmlns="http://www.w3.org/2000/svg" xmlns:xlink="http://www.w3.org/1999/xlink">
    <title>twitter</title>
    <g id="twitter" stroke="none" stroke-width="1" fill="none" fill-rule="evenodd">
        <g transform="translate(6.992652, 10.398753)" fill="#FFFFFF" fill-rule="nonzero" id="Path">
            <path d="M33.2041386,7.07778089 C33.2276259,7.40589054 33.2276259,7.73407064 33.2276259,8.06218249 C33.2276259,18.0699484 25.5975741,29.6012472 11.6520602,29.6012472 C7.35570781,29.6012472 3.36460541,28.359006 0.00734811416,26.202849 C0.617778682,26.2731168 1.20465027,26.2965644 1.83856704,26.2965644 C5.38357169,26.2965644 8.64695476,25.1012888 11.252936,23.0622199 C7.91916487,22.9918794 5.12536464,20.8122044 4.16278223,17.8121815 C4.63236617,17.8824494 5.10187844,17.9293423 5.59494858,17.9293423 C6.27576607,17.9293423 6.95665634,17.8355564 7.59050033,17.6715731 C4.11588261,16.9683883 1.50982972,13.9215462 1.50982972,10.2418586 L1.50982972,10.1481443 C2.51931285,10.7106482 3.69327216,11.0622043 4.93747394,11.1090257 C2.8949498,9.74962368 1.55680212,7.42933811 1.55680212,4.80432 C1.55680212,3.39809552 1.93236849,2.10903184 2.58977145,0.984024077 C6.3226668,5.57777054 11.9337535,8.57772078 18.2255848,8.90590309 C18.1082255,8.34339921 18.0377658,7.75752041 18.0377658,7.17156896 C18.0377658,2.99964537 21.4185104,-0.398752829 25.6209158,-0.398752829 C27.8042866,-0.398752829 29.7763511,0.515306069 31.1615417,1.99187105 C32.8753274,1.6637614 34.5187262,1.03091701 35.9743788,0.163751051 C35.4108489,1.9216032 34.2135479,3.39816818 32.6406088,4.33560199 C34.1666483,4.17161872 35.6457153,3.74965054 37.0073481,3.16377175 C35.9745243,4.66371164 34.6832035,5.99959561 33.2041386,7.07778309 L33.2041386,7.07778089 Z"></path>
        </g>
    </g>
</svg>