<?xml version="1.0" encoding="UTF-8"?>
<svg width="256px" height="256px" viewBox="0 0 256 256" version="1.1" xmlns="http://www.w3.org/2000/svg" xmlns:xlink="http://www.w3.org/1999/xlink">
    <title>wordmark_nft_full</title>
    <defs>
        <linearGradient x1="35.0862921%" y1="20.7104841%" x2="66.020201%" y2="103.372252%" id="linearGradient-1">
            <stop stop-color="#FFFFFF" offset="0%"></stop>
            <stop stop-color="#BBFBFF" offset="49.5847902%"></stop>
            <stop stop-color="#FD92FF" offset="100%"></stop>
        </linearGradient>
    </defs>
    <g id="wordmark_nft_full" stroke="none" stroke-width="1" fill="none" fill-rule="evenodd">
        <path d="M64.1980831,135.766773 L71.5463259,118.386581 L71.5463259,115 L59.8530351,115 L52.7603834,133.019169 L47.3929712,133.019169 L47.3929712,115 L40.0447284,115 C37.8722045,117.108626 36.658147,118.322684 34.5495208,120.495208 L34.5495208,162.923323 L41.8977636,162.923323 C44.0702875,160.814696 45.284345,159.600639 47.3929712,157.428115 L47.3929712,141.773163 L53.7827476,141.773163 L61.4504792,162.923323 L73.0798722,162.923323 L73.0798722,159.536741 L64.1980831,135.766773 Z M83.3674121,115 C81.1948882,117.108626 79.9808307,118.322684 77.8722045,120.495208 L77.8722045,162.923323 L85.2204473,162.923323 C87.3929712,160.814696 88.6070288,159.600639 90.715655,157.428115 L90.715655,115 L83.3674121,115 Z M104.261981,115 L96.1469649,123.115016 L96.1469649,162.923323 L103.495208,162.923323 C105.667732,160.750799 106.817891,159.600639 108.990415,157.428115 L108.990415,148.099042 L123.43131,148.099042 L134.932907,136.661342 L134.932907,115 L104.261981,115 Z M122.089457,140.111821 L108.990415,140.111821 L108.990415,122.98722 L122.089457,122.98722 L122.089457,140.111821 Z M147.520767,115 L139.405751,123.115016 L139.405751,162.923323 L146.753994,162.923323 C148.926518,160.750799 150.076677,159.600639 152.249201,157.428115 L152.249201,148.099042 L166.690096,148.099042 L178.191693,136.661342 L178.191693,115 L147.520767,115 Z M165.348243,140.111821 L152.249201,140.111821 L152.249201,122.98722 L165.348243,122.98722 L165.348243,140.111821 Z M190.779553,115 L182.664537,123.115016 L182.664537,162.923323 L213.335463,162.923323 L221.450479,154.808307 L221.450479,115 L190.779553,115 Z M195.507987,122.98722 L208.607029,122.98722 L208.607029,154.936102 L195.507987,154.936102 L195.507987,122.98722 Z M61.5463259,170.910543 L53.942492,170.910543 L53.942492,210.846645 L40.8434505,210.846645 L40.8434505,170.910543 L33.2396166,170.910543 C31.1948882,172.955272 30.0447284,174.105431 28,176.15016 L28,208.99361 C31.8338658,212.827476 34.0063898,215 37.8402556,218.833866 L56.9456869,218.833866 C60.7795527,215 62.9520767,212.827476 66.7859425,208.99361 L66.7859425,176.15016 C64.7412141,174.105431 63.5910543,172.955272 61.5463259,170.910543 Z M104.29393,178.897764 L104.29393,174.552716 C102.888179,173.083067 102.121406,172.316294 100.715655,170.910543 L71.5782748,170.910543 L71.5782748,210.71885 L79.6932907,218.833866 L104.29393,218.833866 L104.29393,210.846645 L84.4217252,210.846645 L84.4217252,197.683706 L96.2428115,197.683706 C97.6485623,196.277955 98.4792332,195.447284 99.884984,194.041534 L99.884984,189.632588 L84.4217252,189.632588 L84.4217252,178.897764 L104.29393,178.897764 Z M140.715655,199.345048 C142.888179,197.236422 144.86901,195.255591 147.552716,192.571885 L147.552716,170.910543 L116.881789,170.910543 L108.766773,179.025559 L108.766773,218.833866 L116.115016,218.833866 L121.610224,213.338658 L121.610224,204.009585 L129.469649,204.009585 L137.13738,218.833866 L149.086262,218.833866 L149.086262,215.447284 L140.715655,199.345048 Z M121.610224,178.897764 L134.709265,178.897764 L134.709265,196.022364 L121.610224,196.022364 L121.610224,178.897764 Z M167.297125,178.897764 L184.741214,178.897764 C186.146965,177.492013 186.977636,176.661342 188.383387,175.255591 L188.383387,170.910543 L159.948882,170.910543 C157.776358,173.083067 156.626198,174.233227 154.453674,176.405751 L154.453674,190.654952 L177.968051,206.373802 L177.968051,210.846645 L156.881789,210.846645 C155.476038,212.252396 154.645367,213.083067 153.239617,214.488818 L153.239617,218.833866 L185.316294,218.833866 C187.488818,216.661342 188.638978,215.511182 190.811502,213.338658 L190.811502,198.386581 L167.297125,182.603834 L167.297125,178.897764 Z M228,178.897764 L228,174.552716 C226.594249,173.083067 225.827476,172.316294 224.421725,170.910543 L195.284345,170.910543 L195.284345,210.71885 L203.399361,218.833866 L228,218.833866 L228,210.846645 L208.127796,210.846645 L208.127796,197.683706 L219.948882,197.683706 C221.354633,196.277955 222.185304,195.447284 223.591054,194.041534 L223.591054,189.632588 L208.127796,189.632588 L208.127796,178.897764 L228,178.897764 Z M118.255369,37 L150.359827,37 C154.420992,37 155.351964,41.750518 151.899036,44.8513725 L138.4108,56.9638621 C136.137612,59.0052929 135.336573,61.9947071 136.515819,64.0358913 L143.512897,76.1486275 C145.30408,79.249482 141.826991,84 137.766319,84 L105.661861,84 C103.026985,84 101.463614,81.8638941 102.169485,79.2290184 L112.20652,41.7707351 C112.912392,39.1358593 115.620493,37 118.255369,37" id="Combined-Shape" fill="url(#linearGradient-1)"></path>
    </g>
</svg>