<?xml version="1.0" encoding="UTF-8"?>
<svg width="50px" height="50px" viewBox="0 0 50 50" version="1.1" xmlns="http://www.w3.org/2000/svg" xmlns:xlink="http://www.w3.org/1999/xlink">
    <title>discord</title>
    <g id="discord" stroke="none" stroke-width="1" fill="none" fill-rule="evenodd">
        <g transform="translate(3.897973, 9.249984)" fill="#FFFFFF" fill-rule="nonzero" id="Shape">
            <path d="M35.7115005,2.45264414 C35.6998253,2.43002402 35.6804814,2.4122998 35.6569305,2.40264315 C32.9338332,1.15325704 30.0601834,0.2623487 27.1078982,-0.2477909 C27.0528857,-0.258018673 26.9975136,-0.23181491 26.9705403,-0.182790483 C26.5792382,0.527416301 26.2240254,1.25691896 25.9062513,2.00292949 C22.7238498,1.51984379 19.4867627,1.51984379 16.3043611,2.00292949 C15.9844835,1.25502469 15.623577,0.525341101 15.2232863,-0.182790483 C15.1951893,-0.23064216 15.1406728,-0.256427396 15.0858576,-0.2477909 C12.1332607,0.261276223 9.25942562,1.15225431 6.53668359,2.40271508 C6.51337571,2.41259626 6.49370925,2.42946816 6.480397,2.45100055 C1.03544919,10.5823067 -0.456127702,18.513683 0.275589367,26.3468448 C0.279748491,26.3856327 0.299466185,26.4210746 0.33023237,26.4450593 C3.50077563,28.7926035 7.04706571,30.5845019 10.8177698,31.744286 C10.8721534,31.7605998 10.9309446,31.7413345 10.9651277,31.6960005 C11.7749929,30.5940539 12.4925944,29.4271919 13.1106342,28.2072771 C13.1466429,28.1362952 13.1125852,28.0497973 13.0378485,28.0224186 C11.9062429,27.5894407 10.8107169,27.0674973 9.76155161,26.4614865 C9.67897947,26.412946 9.67206722,26.2961419 9.74833745,26.2381997 C9.96848113,26.0732715 10.1887676,25.901699 10.3989821,25.7284133 C10.4370758,25.697039 10.4896567,25.6899545 10.5346964,25.7101267 C17.4082195,28.8470622 24.8497454,28.8470622 31.6419139,25.7101267 C31.6870909,25.688651 31.7405972,25.6951316 31.7793437,25.7267697 C31.9896302,25.9000554 32.2098458,26.0732715 32.4316309,26.2381997 C32.5083109,26.2955489 32.5022575,26.4123705 32.4200603,26.4614865 C31.3732798,27.0725959 30.2767619,27.5942123 29.1421929,28.020775 C29.0675205,28.0491913 29.0341777,28.1362473 29.0707641,28.2072749 C29.6991515,29.420406 30.4156959,30.5857989 31.2146292,31.6940692 C31.2478848,31.7406914 31.3072264,31.7608287 31.361986,31.7440702 C35.1394454,30.5882163 38.6919349,28.7961522 41.8664498,26.4450593 C41.8977174,26.4222386 41.9176324,26.3870452 41.9210939,26.3484884 C42.7970953,17.2925366 40.4545143,9.42616073 35.7114994,2.45264414 L35.7115005,2.45264414 Z M14.137138,21.5772606 C12.0677022,21.5772606 10.3625538,19.6781843 10.3625538,17.3458945 C10.3625538,15.0136048 12.0346308,13.1143846 14.137138,13.1143846 C16.2560745,13.1143846 17.9447226,15.030104 17.9116502,17.3457507 C17.9116523,19.6781864 16.2395023,21.5772606 14.137138,21.5772606 Z M28.0929012,21.5772606 C26.0235362,21.5772606 24.318389,19.6781843 24.318389,17.3458945 C24.318389,15.0136048 25.990466,13.1143846 28.0929012,13.1143846 C30.2119794,13.1143846 31.9005578,15.030104 31.8674853,17.3457507 C31.8674853,19.6781864 30.2119794,21.5772606 28.0929012,21.5772606 Z"></path>
        </g>
    </g>
</svg>